<?xml version="1.0" encoding="UTF-8" standalone="no"?>
<!DOCTYPE svg PUBLIC "-//W3C//DTD SVG 1.1//EN" "http://www.w3.org/Graphics/SVG/1.1/DTD/svg11.dtd">
<svg version="1.1" xmlns="http://www.w3.org/2000/svg" xmlns:xlink="http://www.w3.org/1999/xlink" preserveAspectRatio="xMidYMid meet" viewBox="0 0 640 640" width="640" height="640"><defs><path d="M149.76 350.95L153.33 328.33L167.62 304.52L179.52 286.67L191.43 270L203.33 253.33L217.62 236.67L230.71 220L246.19 204.52L262.86 192.62L298.57 186.67L318.81 190.24L340.24 193.81L360.48 200.95L378.33 210.48L396.19 220L414.05 230.71L435.48 245L446.19 264.05L447.38 285.48L446.19 309.29L440.24 329.52L437.86 349.76L425.95 366.43L412.86 381.9L405.71 400.95L396.19 418.81L375.95 427.14L354.52 436.67L336.67 447.38L315.24 454.52L293.81 459.29L273.57 460.48L253.33 467.62L233.1 473.57L212.86 467.62L197.38 453.33L185.48 435.48L173.57 418.81L166.43 398.57L160.48 378.33L153.33 359.29L149.76 350.95Z" id="a7u9UA53cZ"></path><clipPath id="clipa11tku3E6"><use xlink:href="#a7u9UA53cZ" opacity="1"></use></clipPath><path d="M215.24 459.29L215.24 439.05L215.24 418.81L215.24 395L235.48 373.57L255.71 356.9L273.57 346.19L290.24 334.29L310.48 315.24L335.48 293.81L354.52 281.9L372.38 268.81L395 262.86L415.24 260.48L434.29 253.33" id="a1YK4zIZPT"></path><path d="M215.24 395L191.18 387.32L180.65 366.83L168.62 347.63L158.1 327.14" id="h1r9j5PXsf"></path><path d="M298.57 192.62L307.44 214.05L326.45 224.76L342.93 239.49L358.13 256.9L377.14 267.62" id="hsn9VPvIp"></path><path d="M264.63 459.29L276.84 429.35L287.79 408.95L301.55 389.71L322.28 366.8L346.04 359.32L369.89 358.98L395.15 358.62L410.83 375.07" id="a2k0ExYwve"></path><path d="M228.48 229.52L227.26 260.26L222.38 281.16L240.66 293.46L263.82 297.15L283.32 304.52L304.04 304.52L324.76 303.29" id="f3HBxbOGE8"></path></defs><g><g><g><use xlink:href="#a7u9UA53cZ" opacity="1" fill="#92592e" fill-opacity="0"></use><g clip-path="url(#clipa11tku3E6)"><use xlink:href="#a7u9UA53cZ" opacity="1" fill-opacity="0" stroke="#ffffff" stroke-width="16" stroke-opacity="1"></use></g></g><g><g><use xlink:href="#a1YK4zIZPT" opacity="1" fill-opacity="0" stroke="#ffffff" stroke-width="5" stroke-opacity="1"></use></g></g><g><g><use xlink:href="#h1r9j5PXsf" opacity="1" fill-opacity="0" stroke="#ffffff" stroke-width="4" stroke-opacity="1"></use></g></g><g><g><use xlink:href="#hsn9VPvIp" opacity="1" fill-opacity="0" stroke="#ffffff" stroke-width="4" stroke-opacity="1"></use></g></g><g><g><use xlink:href="#a2k0ExYwve" opacity="1" fill-opacity="0" stroke="#ffffff" stroke-width="4" stroke-opacity="1"></use></g></g><g><g><use xlink:href="#f3HBxbOGE8" opacity="1" fill-opacity="0" stroke="#ffffff" stroke-width="4" stroke-opacity="1"></use></g></g></g></g></svg>