<svg width="640" height="640" xmlns="http://www.w3.org/2000/svg" xmlns:xlink="http://www.w3.org/1999/xlink" preserveAspectRatio="xMidYMid meet">
 <defs>
  <path id="b2ox2wD8oS" d="m186.66,504.67c-31.7,-60.23 -9.9,-97.88 65.39,-112.94"/>
  <path id="bHM3V5TIK" d="m271.07,490.22c-2.38,16.64 -6.34,26.94 -11.89,30.91l-15.45,13.07l-58.25,-30.91"/>
  <path id="bdoGU3MI2" d="m325.94,351.5l-55.87,140.28"/>
  <path id="cSHKl4u2T" d="m297.41,496.54l36.86,-140.28"/>
  <path id="coUzdw95Y" d="m298.84,494.25c-12.42,15.28 -14.17,29.11 -5.24,41.52l6.23,16.73l65.54,8.38"/>
  <path id="gRTm5twYd" d="m360.93,420.68c61.16,59.83 61.93,106.58 2.31,140.26"/>
  <path id="bRM71cWS" d="m362.04,361.83c-14.16,21.47 -14.16,41.41 0,59.81"/>
  <path id="k2xS91hTts" d="m399.46,111.17c-7.92,-9.51 -14.66,-9.51 -20.21,0c-30.11,106.21 -50.92,173.17 -62.41,200.91c-11.49,27.74 -17.63,36.46 -18.43,26.16"/>
  <path id="am4Rf5EnG" d="m418.67,113.74c10.3,-3.17 13.47,0.4 9.51,10.7c-36.46,95.11 -58.58,158.11 -66.38,189.02c-7.8,30.91 -7.8,45.18 0,42.8"/>
  <path id="d1iq7xmQEO" d="m400.46,109.17l-6.57,43.99l25.78,-40.42"/>
  <path id="a4AQWGhqI" d="m257.06,474.45c-8.89,19.05 -28.96,28.53 -44.78,21.14c-15.82,-7.39 -21.45,-28.85 -12.55,-47.9c8.89,-19.06 28.96,-28.53 44.78,-21.14c15.82,7.38 21.44,28.85 12.55,47.9z"/>
  <path id="b2iCvZtBHr" d="m383.71,501.43c-1.6,20.96 -17.67,36.85 -35.85,35.46c-18.19,-1.39 -31.65,-19.54 -30.05,-40.5c1.61,-20.97 17.67,-36.86 35.86,-35.47c18.18,1.39 31.64,19.54 30.04,40.51z"/>
  <path id="a1oMaN9sTu" d="m356.95,291.69c0,7.21 -4.86,13.07 -10.84,13.07c-5.99,0 -10.84,-5.86 -10.84,-13.07c0,-7.22 4.85,-13.08 10.84,-13.08c5.98,0 10.84,5.86 10.84,13.08z"/>
  <path id="b6xRL5WVTU" d="m321.91,343.75l15.48,-9.51l6.2,19.02"/>
  <path id="bDYQto4G4" d="m342.59,349.13l-15.46,13.07"/>
  <path id="bcgFUpjC4" d="m330.71,362.6l-7.32,-21.33"/>
  <path id="glKAe8J8M" d="m398.9,108.95c4.04,2.43 4.18,11.17 0.43,26.23"/>
  <path id="a4FjP2lpX4" d="m425.55,109.92c-10.45,0.15 -19.94,12.15 -28.46,36"/>
  <path id="bCpFDQYj6" d="m418.4,115.74l-85.6,152.17"/>
  <path id="axjktLSK7" d="m399.46,112.62l-10.62,55.81"/>
  <path id="c2uQgyKUy" d="m375.69,192.2l14.15,-88.16"/>
  <path id="a2hicMJZr" d="m362.04,317.97c-0.79,11.1 -8.72,15.85 -23.77,14.27"/>
  <path id="dkL052EH3" d="m348.94,304.76l-6.35,-26.15"/>
  <path id="b1MFdoRau7" d="m326.79,353.15l-30.22,-9.62"/>
  <path id="jFWQZf9FJ" d="m337.99,355.02l27.13,9.23"/>
  <path id="a27ttKIwf" d="m295.47,339.97c1.49,32.08 -13.52,49.34 -45.02,51.76"/>
  <path id="f41OFyjcZ" d="m312.38,323.4c-3.27,10.37 -10.44,16.61 -21.51,18.73"/>
  <path id="a5TDnws2u9" d="m358.95,328.25c-2.87,16.62 -1.51,29.28 4.09,38"/>
 </defs>
 <g>
  <title>background</title>
  <rect fill="none" id="canvas_background" height="402" width="582" y="-1" x="-1"/>
 </g>
 <g>
  <title>Layer 1</title>
  <g id="svg_1">
   <g id="svg_2">
    <g id="svg_3">
     <g id="svg_4">
      <use id="svg_5" stroke-opacity="0.98" stroke-width="8" stroke="#63b68c" fill-opacity="0" xlink:href="#b2ox2wD8oS"/>
     </g>
    </g>
    <g id="svg_6">
     <g id="svg_7">
      <use id="svg_8" stroke-opacity="0.98" stroke-width="8" stroke="#63b68c" fill-opacity="0" xlink:href="#bHM3V5TIK"/>
     </g>
    </g>
    <g id="svg_9">
     <g id="svg_10">
      <use id="svg_11" stroke-opacity="0.98" stroke-width="8" stroke="#63b68c" fill-opacity="0" xlink:href="#bdoGU3MI2"/>
     </g>
    </g>
    <g id="svg_12">
     <g id="svg_13">
      <use id="svg_14" stroke-opacity="0.98" stroke-width="8" stroke="#63b68c" fill-opacity="0" xlink:href="#cSHKl4u2T"/>
     </g>
    </g>
    <g id="svg_15">
     <g id="svg_16">
      <use id="svg_17" stroke-opacity="0.98" stroke-width="8" stroke="#63b68c" fill-opacity="0" xlink:href="#coUzdw95Y"/>
     </g>
    </g>
    <g id="svg_18">
     <g id="svg_19">
      <use id="svg_20" stroke-opacity="0.98" stroke-width="8" stroke="#63b68c" fill-opacity="0" xlink:href="#gRTm5twYd"/>
     </g>
    </g>
    <g id="svg_21">
     <g id="svg_22">
      <use id="svg_23" stroke-opacity="0.98" stroke-width="8" stroke="#63b68c" fill-opacity="0" xlink:href="#bRM71cWS"/>
     </g>
    </g>
    <g id="svg_24">
     <g id="svg_25">
      <use id="svg_26" stroke-opacity="0.98" stroke-width="8" stroke="#63b68c" fill-opacity="0" xlink:href="#k2xS91hTts"/>
     </g>
    </g>
    <g id="svg_27">
     <g id="svg_28">
      <use id="svg_29" stroke-opacity="0.98" stroke-width="8" stroke="#63b68c" fill-opacity="0" xlink:href="#am4Rf5EnG"/>
     </g>
    </g>
    <g id="svg_30">
     <g id="svg_31">
      <use id="svg_32" stroke-opacity="0.98" stroke-width="8" stroke="#63b68c" fill-opacity="0" xlink:href="#d1iq7xmQEO"/>
     </g>
    </g>
    <g id="svg_33">
     <use stroke="#63b68c" id="svg_34" fill-opacity="0" fill="#453a31" xlink:href="#a4AQWGhqI"/>
     <g id="svg_35">
      <use id="svg_36" stroke-opacity="0.98" stroke-width="5" stroke="#63b68c" fill-opacity="0" xlink:href="#a4AQWGhqI"/>
     </g>
    </g>
    <g id="svg_37">
     <use stroke="#63b68c" id="svg_38" fill-opacity="0" fill="#453a31" xlink:href="#b2iCvZtBHr"/>
     <g id="svg_39">
      <use id="svg_40" stroke-opacity="0.98" stroke-width="5" stroke="#63b68c" fill-opacity="0" xlink:href="#b2iCvZtBHr"/>
     </g>
    </g>
    <g id="svg_41">
     <use stroke="#63b68c" id="svg_42" fill-opacity="0" fill="#453a31" xlink:href="#a1oMaN9sTu"/>
     <g id="svg_43">
      <use id="svg_44" stroke-opacity="0.98" stroke-width="4" stroke="#63b68c" fill-opacity="0" xlink:href="#a1oMaN9sTu"/>
     </g>
    </g>
    <g id="svg_45">
     <g id="svg_46">
      <use id="svg_47" stroke-opacity="0.98" stroke-width="5" stroke="#63b68c" fill-opacity="0" xlink:href="#b6xRL5WVTU"/>
     </g>
    </g>
    <g id="svg_48">
     <g id="svg_49">
      <use id="svg_50" stroke-opacity="0.98" stroke-width="5" stroke="#63b68c" fill-opacity="0" xlink:href="#bDYQto4G4"/>
     </g>
    </g>
    <g id="svg_51">
     <g id="svg_52">
      <use id="svg_53" stroke-opacity="0.98" stroke-width="5" stroke="#63b68c" fill-opacity="0" xlink:href="#bcgFUpjC4"/>
     </g>
    </g>
    <g id="svg_54">
     <g id="svg_55">
      <use id="svg_56" stroke-opacity="0.98" stroke-width="7" stroke="#63b68c" fill-opacity="0" xlink:href="#glKAe8J8M"/>
     </g>
    </g>
    <g id="svg_57">
     <g id="svg_58">
      <use id="svg_59" stroke-opacity="0.98" stroke-width="3" stroke="#63b68c" fill-opacity="0" xlink:href="#a4FjP2lpX4"/>
     </g>
    </g>
    <g id="svg_60">
     <g id="svg_61">
      <use id="svg_62" stroke-opacity="0.98" stroke-width="5" stroke="#63b68c" fill-opacity="0" xlink:href="#bCpFDQYj6"/>
     </g>
    </g>
    <g id="svg_63">
     <g id="svg_64">
      <use id="svg_65" stroke-opacity="0.98" stroke-width="5" stroke="#63b68c" fill-opacity="0" xlink:href="#axjktLSK7"/>
     </g>
    </g>
    <g id="svg_66">
     <g id="svg_67">
      <use id="svg_68" stroke-opacity="0.98" stroke-width="4" stroke="#63b68c" fill-opacity="0" xlink:href="#c2uQgyKUy"/>
     </g>
    </g>
    <g id="svg_69">
     <g id="svg_70">
      <use id="svg_71" stroke-opacity="0.98" stroke-width="4" stroke="#63b68c" fill-opacity="0" xlink:href="#a2hicMJZr"/>
     </g>
    </g>
    <g id="svg_72">
     <g id="svg_73">
      <use id="svg_74" stroke-opacity="0.98" stroke-width="4" stroke="#63b68c" fill-opacity="0" xlink:href="#dkL052EH3"/>
     </g>
    </g>
    <g id="svg_75">
     <g id="svg_76">
      <use id="svg_77" stroke-opacity="0.98" stroke-width="4" stroke="#63b68c" fill-opacity="0" xlink:href="#b1MFdoRau7"/>
     </g>
    </g>
    <g id="svg_78">
     <g id="svg_79">
      <use id="svg_80" stroke-opacity="0.98" stroke-width="4" stroke="#63b68c" fill-opacity="0" xlink:href="#jFWQZf9FJ"/>
     </g>
    </g>
    <g id="svg_81">
     <g id="svg_82">
      <use id="svg_83" stroke-opacity="0.98" stroke-width="8" stroke="#63b68c" fill-opacity="0" xlink:href="#a27ttKIwf"/>
     </g>
    </g>
    <g id="svg_84">
     <g id="svg_85">
      <use id="svg_86" stroke-opacity="0.98" stroke-width="7" stroke="#63b68c" fill-opacity="0" xlink:href="#f41OFyjcZ"/>
     </g>
    </g>
    <g id="svg_87">
     <g id="svg_88">
      <use id="svg_89" stroke-opacity="0.98" stroke-width="7" stroke="#63b68c" fill-opacity="0" xlink:href="#a5TDnws2u9"/>
     </g>
    </g>
   </g>
  </g>
 </g>
</svg>