<?xml version="1.0" encoding="UTF-8" standalone="no"?>
<!DOCTYPE svg PUBLIC "-//W3C//DTD SVG 1.1//EN" "http://www.w3.org/Graphics/SVG/1.1/DTD/svg11.dtd">
<svg version="1.1" xmlns="http://www.w3.org/2000/svg" xmlns:xlink="http://www.w3.org/1999/xlink" preserveAspectRatio="xMidYMid meet" viewBox="0 0 640 640" width="640" height="640"><defs><path d="M186.66 504.67C154.96 444.44 176.76 406.79 252.05 391.73" id="b2ox2wD8oS"></path><path d="M271.07 490.22C268.69 506.86 264.73 517.16 259.18 521.13L243.73 534.2L185.48 503.29" id="bHM3V5TIK"></path><path d="M325.94 351.5L270.07 491.78" id="bdoGU3MI2"></path><path d="M297.41 496.54L334.27 356.26" id="cSHKl4u2T"></path><path d="M298.84 494.25C286.42 509.53 284.67 523.36 293.6 535.77L299.83 552.5L365.37 560.88" id="coUzdw95Y"></path><path d="M360.93 420.68C422.09 480.51 422.86 527.26 363.24 560.94" id="gRTm5twYd"></path><path d="M362.04 361.83C347.88 383.3 347.88 403.24 362.04 421.64" id="bRM71cWS"></path><path d="M399.46 111.17C391.54 101.66 384.8 101.66 379.25 111.17C349.14 217.38 328.33 284.34 316.84 312.08C305.35 339.82 299.21 348.54 298.41 338.24" id="k2xS91hTts"></path><path d="M418.67 113.74C428.97 110.57 432.14 114.14 428.18 124.44C391.72 219.55 369.6 282.55 361.8 313.46C354 344.37 354 358.64 361.8 356.26" id="am4Rf5EnG"></path><path d="M400.46 109.17L393.89 153.16L419.67 112.74" id="d1iq7xmQEO"></path><path d="M257.06 474.45C248.17 493.5 228.1 502.98 212.28 495.59C196.46 488.2 190.83 466.74 199.73 447.69C208.62 428.63 228.69 419.16 244.51 426.55C260.33 433.93 265.95 455.4 257.06 474.45Z" id="a4AQWGhqI"></path><path d="M383.71 501.43C382.11 522.39 366.04 538.28 347.86 536.89C329.67 535.5 316.21 517.35 317.81 496.39C319.42 475.42 335.48 459.53 353.67 460.92C371.85 462.31 385.31 480.46 383.71 501.43Z" id="b2iCvZtBHr"></path><path d="M356.95 291.69C356.95 298.9 352.09 304.76 346.11 304.76C340.12 304.76 335.27 298.9 335.27 291.69C335.27 284.47 340.12 278.61 346.11 278.61C352.09 278.61 356.95 284.47 356.95 291.69Z" id="a1oMaN9sTu"></path><path d="M321.91 343.75L337.39 334.24L343.59 353.26" id="b6xRL5WVTU"></path><path d="M342.59 349.13L327.13 362.2" id="bDYQto4G4"></path><path d="M330.71 362.6L323.39 341.27" id="bcgFUpjC4"></path><path d="M398.9 108.95C402.94 111.38 403.08 120.12 399.33 135.18" id="glKAe8J8M"></path><path d="M425.55 109.92C415.1 110.07 405.61 122.07 397.09 145.92" id="a4FjP2lpX4"></path><path d="M418.4 115.74L332.8 267.91" id="bCpFDQYj6"></path><path d="M399.46 112.62L388.84 168.43" id="axjktLSK7"></path><path d="M375.69 192.2L389.84 104.04" id="c2uQgyKUy"></path><path d="M362.04 317.97C361.25 329.07 353.32 333.82 338.27 332.24" id="a2hicMJZr"></path><path d="M348.94 304.76L342.59 278.61" id="dkL052EH3"></path><path d="M326.79 353.15L296.57 343.53" id="b1MFdoRau7"></path><path d="M337.99 355.02L365.12 364.25" id="jFWQZf9FJ"></path><path d="M295.47 339.97C296.96 372.05 281.95 389.31 250.45 391.73" id="a27ttKIwf"></path><path d="M312.38 323.4C309.11 333.77 301.94 340.01 290.87 342.13" id="f41OFyjcZ"></path><path d="M358.95 328.25C356.08 344.87 357.44 357.53 363.04 366.25" id="a5TDnws2u9"></path></defs><g><g><g><g><use xlink:href="#b2ox2wD8oS" opacity="1" fill-opacity="0" stroke="#ffffff" stroke-width="8" stroke-opacity="0.98"></use></g></g><g><g><use xlink:href="#bHM3V5TIK" opacity="1" fill-opacity="0" stroke="#ffffff" stroke-width="8" stroke-opacity="0.98"></use></g></g><g><g><use xlink:href="#bdoGU3MI2" opacity="1" fill-opacity="0" stroke="#ffffff" stroke-width="8" stroke-opacity="0.98"></use></g></g><g><g><use xlink:href="#cSHKl4u2T" opacity="1" fill-opacity="0" stroke="#ffffff" stroke-width="8" stroke-opacity="0.98"></use></g></g><g><g><use xlink:href="#coUzdw95Y" opacity="1" fill-opacity="0" stroke="#ffffff" stroke-width="8" stroke-opacity="0.98"></use></g></g><g><g><use xlink:href="#gRTm5twYd" opacity="1" fill-opacity="0" stroke="#ffffff" stroke-width="8" stroke-opacity="0.98"></use></g></g><g><g><use xlink:href="#bRM71cWS" opacity="1" fill-opacity="0" stroke="#ffffff" stroke-width="8" stroke-opacity="0.98"></use></g></g><g><g><use xlink:href="#k2xS91hTts" opacity="1" fill-opacity="0" stroke="#ffffff" stroke-width="8" stroke-opacity="0.98"></use></g></g><g><g><use xlink:href="#am4Rf5EnG" opacity="1" fill-opacity="0" stroke="#ffffff" stroke-width="8" stroke-opacity="0.98"></use></g></g><g><g><use xlink:href="#d1iq7xmQEO" opacity="1" fill-opacity="0" stroke="#ffffff" stroke-width="8" stroke-opacity="0.98"></use></g></g><g><use xlink:href="#a4AQWGhqI" opacity="1" fill="#453a31" fill-opacity="0"></use><g><use xlink:href="#a4AQWGhqI" opacity="1" fill-opacity="0" stroke="#ffffff" stroke-width="5" stroke-opacity="0.98"></use></g></g><g><use xlink:href="#b2iCvZtBHr" opacity="1" fill="#453a31" fill-opacity="0"></use><g><use xlink:href="#b2iCvZtBHr" opacity="1" fill-opacity="0" stroke="#ffffff" stroke-width="5" stroke-opacity="0.98"></use></g></g><g><use xlink:href="#a1oMaN9sTu" opacity="1" fill="#453a31" fill-opacity="0"></use><g><use xlink:href="#a1oMaN9sTu" opacity="1" fill-opacity="0" stroke="#ffffff" stroke-width="4" stroke-opacity="0.98"></use></g></g><g><g><use xlink:href="#b6xRL5WVTU" opacity="1" fill-opacity="0" stroke="#ffffff" stroke-width="5" stroke-opacity="0.98"></use></g></g><g><g><use xlink:href="#bDYQto4G4" opacity="1" fill-opacity="0" stroke="#ffffff" stroke-width="5" stroke-opacity="0.98"></use></g></g><g><g><use xlink:href="#bcgFUpjC4" opacity="1" fill-opacity="0" stroke="#ffffff" stroke-width="5" stroke-opacity="0.98"></use></g></g><g><g><use xlink:href="#glKAe8J8M" opacity="1" fill-opacity="0" stroke="#ffffff" stroke-width="7" stroke-opacity="0.98"></use></g></g><g><g><use xlink:href="#a4FjP2lpX4" opacity="1" fill-opacity="0" stroke="#ffffff" stroke-width="3" stroke-opacity="0.98"></use></g></g><g><g><use xlink:href="#bCpFDQYj6" opacity="1" fill-opacity="0" stroke="#ffffff" stroke-width="5" stroke-opacity="0.98"></use></g></g><g><g><use xlink:href="#axjktLSK7" opacity="1" fill-opacity="0" stroke="#ffffff" stroke-width="5" stroke-opacity="0.98"></use></g></g><g><g><use xlink:href="#c2uQgyKUy" opacity="1" fill-opacity="0" stroke="#ffffff" stroke-width="4" stroke-opacity="0.98"></use></g></g><g><g><use xlink:href="#a2hicMJZr" opacity="1" fill-opacity="0" stroke="#ffffff" stroke-width="4" stroke-opacity="0.98"></use></g></g><g><g><use xlink:href="#dkL052EH3" opacity="1" fill-opacity="0" stroke="#ffffff" stroke-width="4" stroke-opacity="0.98"></use></g></g><g><g><use xlink:href="#b1MFdoRau7" opacity="1" fill-opacity="0" stroke="#ffffff" stroke-width="4" stroke-opacity="0.98"></use></g></g><g><g><use xlink:href="#jFWQZf9FJ" opacity="1" fill-opacity="0" stroke="#ffffff" stroke-width="4" stroke-opacity="0.98"></use></g></g><g><g><use xlink:href="#a27ttKIwf" opacity="1" fill-opacity="0" stroke="#ffffff" stroke-width="8" stroke-opacity="0.98"></use></g></g><g><g><use xlink:href="#f41OFyjcZ" opacity="1" fill-opacity="0" stroke="#ffffff" stroke-width="7" stroke-opacity="0.98"></use></g></g><g><g><use xlink:href="#a5TDnws2u9" opacity="1" fill-opacity="0" stroke="#ffffff" stroke-width="7" stroke-opacity="0.98"></use></g></g></g></g></svg>